**ABCDEFGHIJKLMNOPQRSTUVWXYZabcdefghijklmnopqrstuvwxyz**************************
**PARASOLID !"#$%&'()*+,-./:;<=>?@[\]^_`{|}~0123456789**************************
**PART1;
MC=x86;
MC_MODEL=x86 Family 15 Model 5 Stepping 1, AuthenticAMD;
MC_ID=unknown;
OS=Windows_NT;
OS_RELEASE=unknown;
FRU=Parasolid Version 15.1, build 242,  7- 8-2004;
APPL=SolidWorks 2005-2004206;
SITE=;
USER=unknown;
FORMAT=text;
GUISE=transmit;
KEY=cylinder;
FILE=cylinder.x_t;
DATE=Tue Aug 24 12:02:36 2004;
**PART2;
SCH=SCH_1501242_15102;
USFLD_SIZE=0;
**PART3;
**END_OF_HEADER*****************************************************************
T51 : TRANSMIT FILE created by modeller version 150124223 SCH_1501242_15102_1300
6185 0 12 255 1 61 0 2 0 0 0 0 1e3 1e-8 0 3 0 1 0 1 1 4 5 6 0 7 8 0 70 11 CI9 li
st_type0 0 1 uI10 notransmit0 0 1 lCCCDCCDI12 finger_index0 0 1 dI12 finger_bloc
k1012 0 CZ2 0 4 T1 0 0 2 20 1 9 9 13 255 4 29 0 1 0 10 0 0 11 0 51 255 5 28 0 10
 12 0 0 -0 .1 .08 0 -1 0 .04 0 0 -1 31 255 6 5 0 8 13 0 0 +0 .1 .08 0 1 0 0 0 1
 .04 19 255 7 7 0 1 11 0 14 V16 255 8 4 0 ?15 0 16 6 0 0 1 17 255 15 0 17 15 15
 0 18 8 0 0 +16 16 18 0 ?19 8 0 13 0 0 1 17 19 0 20 19 19 0 21 16 0 0 +31 13 23
 0 16 0 6 0 +0 0 .08 0 1 0 0 0 1 .04 15 255 20 26 0 19 10 0 17 21 0 22 21 21 0 1
9 16 0 0 -15 22 17 0 21 23 0 14 255 23 16 24 ?0 25 22 4 26 -0 0 0 25 14 81 255 1
 24 59 27 23 28 0 0 29 30 14 25 1 29 ?23 10 17 4 12 +0 0 23 10 14 50 255 26 22 0
 23 0 12 0 +0 0 .08 0 1 0 0 0 1 13 14 8 0 0 0 0 0 0 7 10 14 10 25 31 ?25 0 32 4
 5 -0 0 25 0 14 81 1 31 61 27 10 33 0 29 0 34 15 32 24 0 18 10 20 17 18 0 32 18
 18 0 15 8 0 0 -80 255 1 27 35 36 9000 1 1 1 1 1 1 1 1 0 FFFFTFTFFFFFFF1 81 1 33
 50 37 10 0 31 0 38 39 81 1 29 60 27 25 38 0 24 31 40 82 255 1 34 -1114505091 81
 1 38 51 37 25 0 29 33 28 41 82 1 40 -1116471171 80 1 37 0 42 8001 0 0 0 0 3 5 0
 0 0 FFFFTFTFFFFFFF2 81 1 28 52 37 23 0 24 38 0 43 83 255 3 41 .752941176470588
 .752941176470588 .752941176470588 83 3 43 .752941176470588 .752941176470588 .75
2941176470588 79 255 15 42 SDL/TYSA_COLOUR83 3 39 .752941176470588 .752941176470
588 .752941176470588 79 14 36 SWEntUnchanged50 12 2 0 25 26 5 0 +0 .1 .08 0 1 0
 0 0 1 15 17 3 0 15 25 0 82 1 30 -1115029379 19 11 30 0 1 0 7 4 S74 255 20 9 2 0
 31 28 0 0 0 0 0 0 0 0 0 0 0 0 0 0 0 0 0 0 1 0 
